<?xml version="1.0" encoding="iso-8859-1"?>
<!-- Generator: Adobe Illustrator 19.0.0, SVG Export Plug-In . SVG Version: 6.00 Build 0)  -->
<svg version="1.1" id="Layer_1" xmlns="http://www.w3.org/2000/svg" xmlns:xlink="http://www.w3.org/1999/xlink" x="0px" y="0px"
	 viewBox="0 0 512 512" style="enable-background:new 0 0 512 512;" xml:space="preserve">
<g>
	<g>
		<path d="M460.8,64H51.2C22.921,64,0,86.921,0,115.2v281.6C0,425.079,22.921,448,51.2,448h409.6c28.279,0,51.2-22.921,51.2-51.2
			V115.2C512,86.921,489.079,64,460.8,64z M486.4,294.4h-128c-14.114,0-25.6-11.486-25.6-25.6v-25.6c0-14.114,11.486-25.6,25.6-25.6
			h128V294.4z M486.4,192h-128c-28.279,0-51.2,22.921-51.2,51.2v25.6c0,28.279,22.921,51.2,51.2,51.2h128v76.8
			c0,14.114-11.486,25.6-25.6,25.6H51.2c-14.114,0-25.6-11.486-25.6-25.6V115.2c0-14.114,11.486-25.6,25.6-25.6h409.6
			c14.114,0,25.6,11.486,25.6,25.6V192z"/>
	</g>
</g>
<g>
	<g>
		<circle cx="371.2" cy="256" r="12.8"/>
	</g>
</g>
<g>
</g>
<g>
</g>
<g>
</g>
<g>
</g>
<g>
</g>
<g>
</g>
<g>
</g>
<g>
</g>
<g>
</g>
<g>
</g>
<g>
</g>
<g>
</g>
<g>
</g>
<g>
</g>
<g>
</g>
</svg>
